<?xml version="1.0" encoding="UTF-8"?>
<svg xmlns="http://www.w3.org/2000/svg" xmlns:xlink="http://www.w3.org/1999/xlink" width="200px" height="50px" viewBox="0 0 200 50" version="1.1">
<g id="surface1">
<path style=" stroke:none;fill-rule:nonzero;fill:rgb(0%,0%,0%);fill-opacity:1;" d="M 11.449219 14.699219 C 5.300781 16 2.199219 19.851562 2.601562 25.699219 C 2.949219 31.550781 6.550781 34.851562 13.148438 35.351562 C 16.949219 35.648438 21.601562 34.800781 22.75 33.550781 C 23.949219 32.148438 22.898438 31.800781 20.25 32.75 C 17.601562 33.601562 12.699219 33.75 10.648438 32.949219 C 6.699219 31.449219 4.351562 26.75 5.5 22.449219 C 6.898438 17.25 13.648438 14.601562 19.75 16.75 C 20.949219 17.199219 21.898438 17.300781 22.199219 17 C 23.101562 16.101562 21.449219 15.101562 18.300781 14.550781 C 14.699219 13.898438 15.101562 13.898438 11.449219 14.699219 Z M 11.449219 14.699219 "/>
<path style=" stroke:none;fill-rule:nonzero;fill:rgb(0%,0%,0%);fill-opacity:1;" d="M 36.5 15.050781 C 36.5 15.648438 34.898438 18.449219 33 21.300781 C 29.648438 26.25 26 33 26 34.351562 C 26 34.699219 26.550781 35 27.199219 35 C 28.199219 35 28.601562 34.550781 29.300781 32.699219 C 30.699219 29.050781 30.800781 29 37.648438 29 C 41 29 44 29.199219 44.300781 29.398438 C 44.601562 29.601562 45.5 30.949219 46.300781 32.351562 C 47.5 34.550781 48 35 49.148438 35 C 49.898438 35 50.5 34.898438 50.5 34.75 C 50.5 33.949219 39.800781 15.601562 38.898438 14.851562 C 37.5 13.699219 36.5 13.75 36.5 15.050781 Z M 40.800781 22.25 C 42 24.449219 43 26.550781 43 26.851562 C 43 27.351562 41.601562 27.5 37.75 27.5 C 33.351562 27.5 32.5 27.398438 32.5 26.699219 C 32.5 25.601562 37.550781 17.949219 38.148438 18.148438 C 38.398438 18.199219 39.601562 20.101562 40.800781 22.25 Z M 40.800781 22.25 "/>
<path style=" stroke:none;fill-rule:nonzero;fill:rgb(0%,0%,0%);fill-opacity:1;" d="M 53 15 C 53 15.949219 61.648438 34.25 62.398438 34.851562 C 62.898438 35.25 63.5 35.300781 64.550781 34.898438 C 67.101562 34 74.601562 21.449219 75.351562 16.75 C 75.550781 15.5 75.398438 15.050781 74.699219 14.800781 C 73.550781 14.351562 73.300781 14.699219 72.25 18 C 71.148438 21.398438 68.5 26.800781 66.101562 30.351562 C 64.699219 32.5 64.199219 32.898438 63.75 32.398438 C 63.449219 32.050781 61.648438 28.25 59.75 24 C 57.851562 19.75 56 15.851562 55.601562 15.351562 C 54.800781 14.449219 53 14.199219 53 15 Z M 53 15 "/>
<path style=" stroke:none;fill-rule:nonzero;fill:rgb(0%,0%,0%);fill-opacity:1;" d="M 88.148438 16.5 C 77.398438 18.648438 74.949219 30.050781 84.398438 34.398438 C 86.851562 35.5 87.550781 35.601562 91.699219 35.351562 C 96.949219 35.050781 98 34.75 98 33.449219 C 98 32.949219 97.949219 32.5 97.898438 32.5 C 97.800781 32.5 96.648438 32.851562 95.300781 33.25 C 90.648438 34.648438 86.601562 33.949219 83.75 31.148438 C 79.898438 27.398438 81.148438 21.25 86.199219 18.949219 C 88.449219 17.898438 94.050781 17.648438 96.199219 18.5 C 97.351562 18.898438 97.5 18.851562 97.5 17.800781 C 97.5 16.800781 97.199219 16.601562 95.199219 16.300781 C 92.398438 15.949219 90.898438 16 88.148438 16.5 Z M 88.148438 16.5 "/>
<path style=" stroke:none;fill-rule:nonzero;fill:rgb(0%,0%,0%);fill-opacity:1;" d="M 110.5 16.449219 C 105.199219 17.601562 101.898438 20.949219 101.601562 25.398438 C 101.449219 27.851562 101.601562 28.550781 102.800781 30.300781 C 105.398438 34.300781 109.398438 35.898438 115.699219 35.398438 C 124.300781 34.699219 129.050781 27.199219 124.851562 20.949219 C 122.550781 17.550781 115.5 15.351562 110.5 16.449219 Z M 115.898438 18.050781 C 120.75 19.050781 124.101562 23.449219 123.300781 27.648438 C 122 34.601562 111.25 36.351562 106.300781 30.5 C 104.699219 28.550781 104.300781 27.101562 104.648438 24.199219 C 105 21.050781 107.148438 18.851562 110.75 17.949219 C 112.898438 17.449219 113.199219 17.449219 115.898438 18.050781 Z M 115.898438 18.050781 "/>
<path style=" stroke:none;fill-rule:nonzero;fill:rgb(0%,0%,0%);fill-opacity:1;" d="M 130.851562 19.351562 C 130.898438 20.949219 131.050781 24.148438 131.148438 26.5 C 131.449219 33.601562 133.449219 35.851562 139.25 35.398438 C 140.898438 35.25 143.050781 34.75 143.949219 34.300781 C 145.550781 33.449219 145.601562 33.449219 145.851562 34.449219 C 146.050781 35.199219 146.5 35.5 147.449219 35.5 L 148.75 35.5 L 148.75 16.5 L 145.148438 16.5 L 145.550781 18.851562 C 146.148438 22.398438 146.101562 28.648438 145.449219 30.398438 C 144.898438 32.050781 141.699219 34 139.601562 34 C 137.800781 34 135.148438 32.699219 134.5 31.5 C 134.101562 30.800781 134 28.050781 134.101562 23.449219 L 134.25 16.5 L 130.699219 16.5 Z M 130.851562 19.351562 "/>
<path style=" stroke:none;fill-rule:nonzero;fill:rgb(0%,0%,0%);fill-opacity:1;" d="M 154 17.398438 C 155.050781 18.25 155.050781 18.550781 154.898438 26.898438 L 154.75 35.5 L 158.351562 35.5 L 158.101562 28.5 C 157.949219 23.898438 158.050781 21.5 158.351562 21.5 C 158.648438 21.5 162.101562 24.648438 166.050781 28.5 C 171.648438 33.898438 173.550781 35.5 174.601562 35.5 L 175.898438 35.5 L 175.648438 28.101562 C 175.5 23.949219 175.601562 19.851562 175.898438 18.601562 L 176.398438 16.5 L 172.648438 16.5 L 172.898438 23.75 C 173.050781 28.851562 172.949219 31 172.601562 31 C 172.300781 31 168.699219 27.75 164.648438 23.75 C 157.449219 16.699219 157.199219 16.550781 155.050781 16.5 C 152.898438 16.5 152.898438 16.5 154 17.398438 Z M 154 17.398438 "/>
<path style=" stroke:none;fill-rule:nonzero;fill:rgb(0%,0%,0%);fill-opacity:1;" d="M 179.351562 17.5 C 179.101562 18.449219 179.300781 18.449219 182.851562 18.148438 L 186.601562 17.851562 L 186.398438 26.648438 L 186.25 35.5 L 189.75 35.5 L 189.601562 26.648438 L 189.398438 17.851562 L 192.949219 18.148438 C 194.898438 18.300781 196.5 18.351562 196.5 18.25 C 196.5 18.148438 196.648438 17.75 196.800781 17.300781 C 197.050781 16.601562 196.148438 16.5 188.351562 16.5 C 180.050781 16.5 179.601562 16.550781 179.351562 17.5 Z M 179.351562 17.5 "/>
</g>
</svg>
